<?xml version="1.0" encoding="UTF-8"?>
<svg width="16px" height="16px" viewBox="0 0 16 16" version="1.1" xmlns="http://www.w3.org/2000/svg" xmlns:xlink="http://www.w3.org/1999/xlink">
    <!-- Generator: sketchtool 64 (101010) - https://sketch.com -->
    <title>0CF60479-2812-4662-BC4E-6837F4ABA22C</title>
    <desc>Created with sketchtool.</desc>
    <g id="Page-3" stroke="none" stroke-width="1" fill="none" fill-rule="evenodd">
        <g id="MW-Sample-1" transform="translate(-328.000000, -96.000000)" fill="#000000">
            <path d="M331.217778,102.924444 C332.497777,105.44 334.56,107.493334 337.075556,108.782223 L339.031111,106.826668 C339.271111,106.586667 339.626667,106.506668 339.937778,106.613335 C340.933334,106.942223 342.008889,107.120001 343.111111,107.120001 C343.599999,107.120001 344,107.520001 344,108.008891 L344,111.111111 C344,111.599999 343.599999,112 343.111111,112 C334.764444,112 328,105.235555 328,96.8888889 C328,96.4 328.4,96 328.888889,96 L332,96 C332.488889,96 332.888889,96.4 332.888889,96.8888889 C332.888889,98 333.066666,99.0666665 333.395555,100.062222 C333.493333,100.373333 333.422222,100.72 333.173333,100.968889 L331.217778,102.924444 Z" id="contact"></path>
        </g>
    </g>
</svg>