<?xml version="1.0" encoding="UTF-8"?>
<svg width="21px" height="14px" viewBox="0 0 21 14" version="1.1" xmlns="http://www.w3.org/2000/svg" xmlns:xlink="http://www.w3.org/1999/xlink">
    <!-- Generator: sketchtool 64 (101010) - https://sketch.com -->
    <title>2295CD91-294D-4614-8475-D94FCA29B28E</title>
    <desc>Created with sketchtool.</desc>
    <g id="Page-3" stroke="none" stroke-width="1" fill="none" fill-rule="evenodd">
        <g id="MW-Sample-1" transform="translate(-298.000000, -1001.000000)" fill="#999999" fill-rule="nonzero">
            <g id="Group-2-Copy-2" transform="translate(16.000000, 984.000000)">
                <g id="preview" transform="translate(282.000000, 17.000000)">
                    <path d="M20.8489883,6.56681871 C20.6917953,6.30483041 17.0239591,0.0171111111 10.4829708,0.0171111111 C3.94198246,0.0171111111 0.274146199,6.30483041 0.116953216,6.56681871 C-0.0390526316,6.83703509 -0.0390526316,7.16992398 0.116953216,7.44009942 C0.274146199,7.70208772 3.94198246,13.989807 10.4829708,13.989807 C17.0239591,13.989807 20.6917953,7.70208772 20.8489883,7.44009942 C21.0049942,7.16992398 21.0049942,6.83703509 20.8489883,6.56681871 Z M10.4830117,12.2432456 C5.87201754,12.2432456 2.81547368,8.33090058 1.91599415,7.00347953 C2.78927485,5.67605848 5.86329825,1.76371345 10.4830117,1.76371345 C15.1027251,1.76371345 18.1505497,5.67605848 19.0500292,7.00347953 C18.1505088,8.33085965 15.1114444,12.2432456 10.4830117,12.2432456 Z" id="Shape"></path>
                    <path d="M10.4830117,2.63699415 C8.07149123,2.63699415 6.11652632,4.59191813 6.11652632,7.00347953 C6.11652632,9.41504094 8.07145029,11.3699649 10.4830117,11.3699649 C12.8945731,11.3699649 14.8494971,9.41504094 14.8494971,7.00347953 C14.8494971,4.59191813 12.8945322,2.63699415 10.4830117,2.63699415 Z M10.4830117,9.62336257 C9.03609942,9.62336257 7.86312865,8.45039181 7.86312865,7.00347953 C7.86312865,5.55656725 9.03609942,4.38359649 10.4830117,4.38359649 C11.929924,4.38359649 13.1028947,5.55656725 13.1028947,7.00347953 C13.1028947,8.45039181 11.929924,9.62336257 10.4830117,9.62336257 Z" id="Shape"></path>
                </g>
            </g>
        </g>
    </g>
</svg>