<?xml version="1.0" encoding="UTF-8"?>
<svg width="18px" height="18px" viewBox="0 0 18 18" version="1.1" xmlns="http://www.w3.org/2000/svg" xmlns:xlink="http://www.w3.org/1999/xlink">
    <!-- Generator: sketchtool 64 (101010) - https://sketch.com -->
    <title>898CC2BD-C5BB-4E71-AD94-3F4D4860AE21</title>
    <desc>Created with sketchtool.</desc>
    <g id="Page-3" stroke="none" stroke-width="1" fill="none" fill-rule="evenodd">
        <g id="MW-Sample-1" transform="translate(-187.000000, -1176.000000)" fill="#000000" fill-rule="nonzero">
            <g id="save" transform="translate(187.000000, 1176.000000)">
                <path d="M17.794055,5.07466414 L12.9253713,0.205910159 C12.7935002,0.0740742199 12.6146603,0 12.4281916,0 L0.70312501,0 C0.314789067,0 0,0.314789067 0,0.70312501 L0,17.2968753 C0,17.6852112 0.314789067,18 0.70312501,18 C0.988277358,18 17.1092112,18 17.2968753,18 C17.6852112,18 18,17.6852112 18,17.2968753 L18,5.57180868 C18,5.38533992 17.925926,5.20650008 17.794055,5.07466414 Z M13.4609065,16.5937502 L4.53909382,16.5937502 L4.53909382,9.70312514 L13.4609065,9.70312514 L13.4609065,16.5937502 L13.4609065,16.5937502 Z M16.5937502,16.5937502 L14.8671565,16.5937502 L14.8671565,9.00000013 C14.8671565,8.61166419 14.5523674,8.29687512 14.1640315,8.29687512 L3.83596881,8.29687512 C3.44763286,8.29687512 3.1328438,8.61166419 3.1328438,9.00000013 L3.1328438,16.5937502 L1.40625002,16.5937502 L1.40625002,1.40625002 L12.1369572,1.40625002 L16.5937502,5.86304306 L16.5937502,16.5937502 Z" id="Shape"></path>
            </g>
        </g>
    </g>
</svg>